<mxfile host="app.diagrams.net" modified="2023-08-11T22:24:00.875Z" agent="Mozilla/5.0 (Windows NT 10.0; Win64; x64) AppleWebKit/537.36 (KHTML, like Gecko) Chrome/115.0.0.0 Safari/537.36" version="21.6.2" etag="JXcI_7Aqm9PsqtHM4uCF" type="github">
  <diagram name="Page-1" id="vrYAkwpqKZp1YYp9rwgU">
    <mxGraphModel>
      <root>
        <mxCell id="0" />
        <mxCell id="1" parent="0" />
      </root>
    </mxGraphModel>
  </diagram>
</mxfile>
